<svg width="298" height="57" viewBox="0 0 298 57" fill="none" xmlns="http://www.w3.org/2000/svg">
<mask id="path-1-inside-1_6520_134" fill="white">
<path d="M0 0H297.5V57H0V0Z"/>
</mask>
<path d="M296.5 0V57H298.5V0H296.5Z" fill="#F1F1F1" mask="url(#path-1-inside-1_6520_134)"/>
<path d="M99.072 6.688V8.864H96V18H93.248V8.864H90.208V6.688H99.072ZM102.289 9.072L104.433 14.544L106.433 9.072H109.457L103.889 22.256H100.881L102.977 17.664L99.2332 9.072H102.289ZM115.934 8.96C116.67 8.96 117.326 9.14667 117.902 9.52C118.489 9.88267 118.947 10.4107 119.278 11.104C119.619 11.7867 119.79 12.5973 119.79 13.536C119.79 14.464 119.619 15.2747 119.278 15.968C118.947 16.6613 118.489 17.1947 117.902 17.568C117.326 17.9307 116.67 18.112 115.934 18.112C115.251 18.112 114.665 17.9573 114.174 17.648C113.683 17.3387 113.326 16.9173 113.102 16.384V22.256H110.366V9.072H113.102V10.688C113.326 10.1547 113.683 9.73333 114.174 9.424C114.665 9.11467 115.251 8.96 115.934 8.96ZM115.054 11.36C114.478 11.36 114.003 11.5573 113.63 11.952C113.267 12.336 113.086 12.864 113.086 13.536C113.086 14.1973 113.267 14.7253 113.63 15.12C114.003 15.5147 114.478 15.712 115.054 15.712C115.641 15.712 116.11 15.52 116.462 15.136C116.825 14.752 117.006 14.2187 117.006 13.536C117.006 12.8533 116.825 12.32 116.462 11.936C116.11 11.552 115.641 11.36 115.054 11.36ZM125.386 8.96C126.271 8.96 127.06 9.14667 127.754 9.52C128.458 9.88267 129.007 10.4107 129.402 11.104C129.807 11.7973 130.01 12.608 130.01 13.536C130.01 14.464 129.807 15.2747 129.402 15.968C129.007 16.6613 128.458 17.1947 127.754 17.568C127.06 17.9307 126.271 18.112 125.386 18.112C124.5 18.112 123.706 17.9307 123.002 17.568C122.298 17.1947 121.743 16.6613 121.338 15.968C120.943 15.2747 120.746 14.464 120.746 13.536C120.746 12.608 120.943 11.7973 121.338 11.104C121.743 10.4107 122.298 9.88267 123.002 9.52C123.706 9.14667 124.5 8.96 125.386 8.96ZM125.386 11.328C124.863 11.328 124.42 11.52 124.058 11.904C123.706 12.2773 123.53 12.8213 123.53 13.536C123.53 14.2507 123.706 14.7947 124.058 15.168C124.42 15.5413 124.863 15.728 125.386 15.728C125.908 15.728 126.346 15.5413 126.698 15.168C127.05 14.7947 127.226 14.2507 127.226 13.536C127.226 12.8213 127.05 12.2773 126.698 11.904C126.346 11.52 125.908 11.328 125.386 11.328ZM134.164 6.16V18H131.428V6.16H134.164ZM140.229 8.96C141.115 8.96 141.904 9.14667 142.597 9.52C143.301 9.88267 143.851 10.4107 144.245 11.104C144.651 11.7973 144.853 12.608 144.853 13.536C144.853 14.464 144.651 15.2747 144.245 15.968C143.851 16.6613 143.301 17.1947 142.597 17.568C141.904 17.9307 141.115 18.112 140.229 18.112C139.344 18.112 138.549 17.9307 137.845 17.568C137.141 17.1947 136.587 16.6613 136.181 15.968C135.787 15.2747 135.589 14.464 135.589 13.536C135.589 12.608 135.787 11.7973 136.181 11.104C136.587 10.4107 137.141 9.88267 137.845 9.52C138.549 9.14667 139.344 8.96 140.229 8.96ZM140.229 11.328C139.707 11.328 139.264 11.52 138.901 11.904C138.549 12.2773 138.373 12.8213 138.373 13.536C138.373 14.2507 138.549 14.7947 138.901 15.168C139.264 15.5413 139.707 15.728 140.229 15.728C140.752 15.728 141.189 15.5413 141.541 15.168C141.893 14.7947 142.069 14.2507 142.069 13.536C142.069 12.8213 141.893 12.2773 141.541 11.904C141.189 11.52 140.752 11.328 140.229 11.328ZM149.664 8.96C150.347 8.96 150.933 9.11467 151.424 9.424C151.915 9.73333 152.277 10.1547 152.512 10.688V9.072H155.232V17.952C155.232 18.784 155.072 19.5307 154.752 20.192C154.432 20.864 153.941 21.3973 153.28 21.792C152.619 22.1867 151.797 22.384 150.816 22.384C149.472 22.384 148.395 22.064 147.584 21.424C146.784 20.7947 146.304 19.936 146.144 18.848H148.848C148.933 19.2107 149.125 19.4933 149.424 19.696C149.733 19.8987 150.133 20 150.624 20C151.189 20 151.643 19.8347 151.984 19.504C152.336 19.184 152.512 18.6667 152.512 17.952V16.384C152.277 16.9173 151.915 17.3387 151.424 17.648C150.933 17.9573 150.347 18.112 149.664 18.112C148.928 18.112 148.267 17.9307 147.68 17.568C147.104 17.1947 146.645 16.6613 146.304 15.968C145.973 15.2747 145.808 14.464 145.808 13.536C145.808 12.5973 145.973 11.7867 146.304 11.104C146.645 10.4107 147.104 9.88267 147.68 9.52C148.267 9.14667 148.928 8.96 149.664 8.96ZM150.544 11.36C149.957 11.36 149.483 11.552 149.12 11.936C148.768 12.32 148.592 12.8533 148.592 13.536C148.592 14.2187 148.768 14.752 149.12 15.136C149.483 15.52 149.957 15.712 150.544 15.712C151.12 15.712 151.589 15.5147 151.952 15.12C152.325 14.7253 152.512 14.1973 152.512 13.536C152.512 12.864 152.325 12.336 151.952 11.952C151.589 11.5573 151.12 11.36 150.544 11.36ZM156.86 6.56C156.86 6.144 157.009 5.80267 157.308 5.536C157.607 5.25867 158.001 5.12 158.492 5.12C158.983 5.12 159.377 5.25867 159.676 5.536C159.975 5.80267 160.124 6.144 160.124 6.56C160.124 6.96533 159.975 7.30667 159.676 7.584C159.377 7.85067 158.983 7.984 158.492 7.984C158.001 7.984 157.607 7.85067 157.308 7.584C157.009 7.30667 156.86 6.96533 156.86 6.56ZM159.852 9.072V18H157.116V9.072H159.852ZM170.221 13.296C170.221 13.52 170.194 13.7653 170.141 14.032H163.949C163.981 14.704 164.152 15.1893 164.461 15.488C164.77 15.776 165.165 15.92 165.645 15.92C166.05 15.92 166.386 15.8187 166.653 15.616C166.92 15.4133 167.096 15.152 167.181 14.832H170.077C169.96 15.4613 169.704 16.0267 169.309 16.528C168.914 17.0187 168.413 17.408 167.805 17.696C167.197 17.9733 166.52 18.112 165.773 18.112C164.898 18.112 164.12 17.9307 163.437 17.568C162.765 17.1947 162.237 16.6613 161.853 15.968C161.469 15.2747 161.277 14.464 161.277 13.536C161.277 12.5973 161.464 11.7867 161.837 11.104C162.221 10.4107 162.754 9.88267 163.437 9.52C164.12 9.14667 164.898 8.96 165.773 8.96C166.658 8.96 167.437 9.14133 168.109 9.504C168.781 9.86667 169.298 10.3787 169.661 11.04C170.034 11.6907 170.221 12.4427 170.221 13.296ZM167.453 12.88C167.464 12.2933 167.304 11.856 166.973 11.568C166.653 11.2693 166.253 11.12 165.773 11.12C165.272 11.12 164.856 11.2693 164.525 11.568C164.194 11.8667 164.008 12.304 163.965 12.88H167.453ZM174.895 8.96C176.026 8.96 176.927 9.24267 177.599 9.808C178.282 10.3733 178.708 11.12 178.879 12.048H176.319C176.244 11.6853 176.074 11.4027 175.807 11.2C175.551 10.9867 175.226 10.88 174.831 10.88C174.522 10.88 174.287 10.9493 174.127 11.088C173.967 11.216 173.887 11.4027 173.887 11.648C173.887 11.9253 174.031 12.1333 174.319 12.272C174.618 12.4107 175.082 12.5493 175.711 12.688C176.394 12.848 176.954 13.0133 177.391 13.184C177.828 13.344 178.207 13.6107 178.527 13.984C178.847 14.3573 179.007 14.8587 179.007 15.488C179.007 16 178.868 16.4533 178.591 16.848C178.314 17.2427 177.914 17.552 177.391 17.776C176.868 18 176.25 18.112 175.535 18.112C174.33 18.112 173.364 17.8453 172.639 17.312C171.914 16.7787 171.471 16.016 171.311 15.024H173.951C173.994 15.408 174.154 15.7013 174.431 15.904C174.719 16.1067 175.087 16.208 175.535 16.208C175.844 16.208 176.079 16.1387 176.239 16C176.399 15.8507 176.479 15.6587 176.479 15.424C176.479 15.1147 176.33 14.896 176.031 14.768C175.743 14.6293 175.268 14.4853 174.607 14.336C173.946 14.1973 173.402 14.048 172.975 13.888C172.548 13.728 172.18 13.472 171.871 13.12C171.562 12.7573 171.407 12.2667 171.407 11.648C171.407 10.848 171.711 10.2027 172.319 9.712C172.927 9.21067 173.786 8.96 174.895 8.96Z" fill="#181D4E"/>
<rect width="166.5" height="32" transform="translate(90 25)" fill="white"/>
<path d="M100.986 43.872H96.674L95.918 46H94.616L98.144 36.298H99.544L103.058 46H101.742L100.986 43.872ZM100.622 42.864L98.83 37.852L97.038 42.864H100.622ZM106.004 35.64V46H104.73V35.64H106.004ZM109.381 35.64V46H108.107V35.64H109.381ZM121.645 36.298V37.32H119.083V46H117.809V37.32H115.247V36.298H121.645ZM123.841 38.314L126.193 44.53L128.587 38.314H129.903L125.269 49.598H123.953L125.479 45.874L122.441 38.314H123.841ZM135.232 38.188C135.923 38.188 136.544 38.3513 137.094 38.678C137.654 39.0047 138.093 39.4667 138.41 40.064C138.737 40.652 138.9 41.3333 138.9 42.108C138.9 42.8827 138.737 43.578 138.41 44.194C138.093 44.8007 137.654 45.2767 137.094 45.622C136.544 45.958 135.923 46.126 135.232 46.126C134.579 46.126 134.005 45.972 133.51 45.664C133.025 45.3467 132.652 44.936 132.39 44.432V49.64H131.116V38.314H132.39V39.854C132.652 39.3593 133.025 38.958 133.51 38.65C134.005 38.342 134.579 38.188 135.232 38.188ZM134.98 39.294C134.523 39.294 134.094 39.4107 133.692 39.644C133.3 39.8773 132.983 40.2133 132.74 40.652C132.507 41.0813 132.39 41.5853 132.39 42.164C132.39 42.7427 132.507 43.2513 132.74 43.69C132.983 44.1193 133.3 44.4507 133.692 44.684C134.094 44.9173 134.523 45.034 134.98 45.034C135.438 45.034 135.867 44.9173 136.268 44.684C136.67 44.4413 136.987 44.096 137.22 43.648C137.463 43.2 137.584 42.6867 137.584 42.108C137.584 41.5293 137.463 41.03 137.22 40.61C136.987 40.1807 136.67 39.854 136.268 39.63C135.876 39.406 135.447 39.294 134.98 39.294ZM143.869 38.188C144.597 38.188 145.255 38.3513 145.843 38.678C146.431 39.0047 146.893 39.4713 147.229 40.078C147.575 40.6847 147.747 41.38 147.747 42.164C147.747 42.9387 147.57 43.6293 147.215 44.236C146.861 44.8333 146.38 45.3 145.773 45.636C145.167 45.9627 144.495 46.126 143.757 46.126C143.039 46.126 142.39 45.9627 141.811 45.636C141.242 45.3093 140.794 44.8473 140.467 44.25C140.15 43.6433 139.991 42.948 139.991 42.164C139.991 41.3707 140.159 40.6753 140.495 40.078C140.841 39.4713 141.307 39.0047 141.895 38.678C142.483 38.3513 143.141 38.188 143.869 38.188ZM143.827 39.238C143.361 39.238 142.936 39.35 142.553 39.574C142.171 39.798 141.863 40.1293 141.629 40.568C141.405 41.0067 141.293 41.5387 141.293 42.164C141.293 42.78 141.401 43.3073 141.615 43.746C141.839 44.1847 142.138 44.516 142.511 44.74C142.885 44.964 143.3 45.076 143.757 45.076C144.224 45.076 144.658 44.964 145.059 44.74C145.47 44.5067 145.801 44.1707 146.053 43.732C146.305 43.2933 146.431 42.7707 146.431 42.164C146.431 41.548 146.31 41.0207 146.067 40.582C145.834 40.134 145.517 39.798 145.115 39.574C144.723 39.35 144.294 39.238 143.827 39.238ZM150.615 35.64V46H149.341V35.64H150.615ZM156.092 38.188C156.82 38.188 157.478 38.3513 158.066 38.678C158.654 39.0047 159.116 39.4713 159.452 40.078C159.797 40.6847 159.97 41.38 159.97 42.164C159.97 42.9387 159.793 43.6293 159.438 44.236C159.083 44.8333 158.603 45.3 157.996 45.636C157.389 45.9627 156.717 46.126 155.98 46.126C155.261 46.126 154.613 45.9627 154.034 45.636C153.465 45.3093 153.017 44.8473 152.69 44.25C152.373 43.6433 152.214 42.948 152.214 42.164C152.214 41.3707 152.382 40.6753 152.718 40.078C153.063 39.4713 153.53 39.0047 154.118 38.678C154.706 38.3513 155.364 38.188 156.092 38.188ZM156.05 39.238C155.583 39.238 155.159 39.35 154.776 39.574C154.393 39.798 154.085 40.1293 153.852 40.568C153.628 41.0067 153.516 41.5387 153.516 42.164C153.516 42.78 153.623 43.3073 153.838 43.746C154.062 44.1847 154.361 44.516 154.734 44.74C155.107 44.964 155.523 45.076 155.98 45.076C156.447 45.076 156.881 44.964 157.282 44.74C157.693 44.5067 158.024 44.1707 158.276 43.732C158.528 43.2933 158.654 42.7707 158.654 42.164C158.654 41.548 158.533 41.0207 158.29 40.582C158.057 40.134 157.739 39.798 157.338 39.574C156.946 39.35 156.517 39.238 156.05 39.238ZM164.728 38.188C165.381 38.188 165.95 38.342 166.436 38.65C166.93 38.958 167.304 39.3593 167.556 39.854V38.314H168.844V46.196C168.844 46.896 168.69 47.5167 168.382 48.058C168.074 48.5993 167.64 49.0193 167.08 49.318C166.52 49.626 165.871 49.78 165.134 49.78C164.49 49.78 163.902 49.668 163.37 49.444C162.838 49.2293 162.404 48.9213 162.068 48.52C161.732 48.1187 161.531 47.6613 161.466 47.148H162.712C162.833 47.5867 163.118 47.9507 163.566 48.24C164.014 48.5293 164.536 48.674 165.134 48.674C165.862 48.674 166.445 48.4547 166.884 48.016C167.332 47.5867 167.556 46.98 167.556 46.196V44.432C167.304 44.936 166.93 45.3467 166.436 45.664C165.95 45.972 165.381 46.126 164.728 46.126C164.037 46.126 163.412 45.958 162.852 45.622C162.301 45.2767 161.862 44.8007 161.536 44.194C161.218 43.578 161.06 42.8827 161.06 42.108C161.06 41.3333 161.218 40.652 161.536 40.064C161.862 39.4667 162.301 39.0047 162.852 38.678C163.412 38.3513 164.037 38.188 164.728 38.188ZM164.952 39.294C164.494 39.294 164.065 39.406 163.664 39.63C163.272 39.854 162.954 40.1807 162.712 40.61C162.478 41.03 162.362 41.5293 162.362 42.108C162.362 42.6867 162.478 43.2 162.712 43.648C162.954 44.0867 163.272 44.4273 163.664 44.67C164.065 44.9127 164.494 45.034 164.952 45.034C165.418 45.034 165.848 44.9173 166.24 44.684C166.641 44.4507 166.958 44.1193 167.192 43.69C167.434 43.2513 167.556 42.7427 167.556 42.164C167.556 41.5853 167.434 41.0813 167.192 40.652C166.958 40.2133 166.641 39.8773 166.24 39.644C165.848 39.4107 165.418 39.294 164.952 39.294ZM170.733 36.214C170.733 35.9713 170.817 35.766 170.985 35.598C171.153 35.43 171.353 35.346 171.587 35.346C171.829 35.346 172.035 35.43 172.203 35.598C172.371 35.766 172.455 35.9713 172.455 36.214C172.455 36.4567 172.371 36.662 172.203 36.83C172.035 36.998 171.829 37.082 171.587 37.082C171.344 37.082 171.139 36.998 170.971 36.83C170.812 36.662 170.733 36.4567 170.733 36.214ZM172.217 38.314V46H170.943V38.314H172.217ZM181.292 41.842C181.292 42.1127 181.273 42.3647 181.236 42.598H175.118C175.155 43.3633 175.393 43.97 175.832 44.418C176.28 44.8567 176.849 45.076 177.54 45.076C178.062 45.076 178.501 44.9593 178.856 44.726C179.22 44.4927 179.486 44.1847 179.654 43.802H181.026C180.783 44.474 180.363 45.0293 179.766 45.468C179.178 45.9067 178.436 46.126 177.54 46.126C176.821 46.126 176.177 45.9627 175.608 45.636C175.048 45.3093 174.609 44.8473 174.292 44.25C173.974 43.6433 173.816 42.948 173.816 42.164C173.816 41.3707 173.974 40.6753 174.292 40.078C174.609 39.4713 175.057 39.0047 175.636 38.678C176.214 38.3513 176.882 38.188 177.638 38.188C178.356 38.188 178.991 38.3467 179.542 38.664C180.092 38.9813 180.522 39.4153 180.83 39.966C181.138 40.5167 181.292 41.142 181.292 41.842ZM179.962 41.674C179.962 41.1793 179.854 40.75 179.64 40.386C179.425 40.0127 179.131 39.728 178.758 39.532C178.394 39.336 177.988 39.238 177.54 39.238C176.877 39.238 176.322 39.4573 175.874 39.896C175.426 40.3253 175.178 40.918 175.132 41.674H179.962ZM185.524 38.188C186.355 38.188 187.013 38.4073 187.498 38.846C187.983 39.2753 188.249 39.868 188.296 40.624H186.98C186.961 40.1947 186.817 39.8493 186.546 39.588C186.275 39.3267 185.902 39.196 185.426 39.196C184.941 39.196 184.558 39.3127 184.278 39.546C184.007 39.77 183.872 40.0547 183.872 40.4C183.872 40.6893 183.956 40.9227 184.124 41.1C184.301 41.268 184.516 41.394 184.768 41.478C185.029 41.562 185.379 41.6507 185.818 41.744C186.378 41.8747 186.826 42.0053 187.162 42.136C187.507 42.2573 187.801 42.4673 188.044 42.766C188.287 43.0553 188.408 43.452 188.408 43.956C188.408 44.376 188.287 44.754 188.044 45.09C187.801 45.4167 187.461 45.6733 187.022 45.86C186.583 46.0373 186.079 46.126 185.51 46.126C184.651 46.126 183.961 45.9113 183.438 45.482C182.925 45.0527 182.645 44.46 182.598 43.704H183.914C183.933 44.1333 184.082 44.4787 184.362 44.74C184.651 44.992 185.034 45.118 185.51 45.118C186.033 45.118 186.434 45.0107 186.714 44.796C187.003 44.5813 187.148 44.2967 187.148 43.942C187.148 43.6527 187.059 43.424 186.882 43.256C186.714 43.0787 186.499 42.948 186.238 42.864C185.977 42.7707 185.617 42.6727 185.16 42.57C184.609 42.4487 184.161 42.3273 183.816 42.206C183.48 42.0753 183.191 41.8747 182.948 41.604C182.715 41.3333 182.598 40.96 182.598 40.484C182.598 40.064 182.715 39.6813 182.948 39.336C183.191 38.9813 183.531 38.7013 183.97 38.496C184.418 38.2907 184.936 38.188 185.524 38.188Z" fill="#6E6E6E"/>
<path d="M33.2812 11.6562C35.0586 11.6562 36.5625 13.1602 36.5625 14.9375C36.5625 16.7832 35.0586 18.2188 33.2812 18.2188C31.4355 18.2188 30 16.7832 30 14.9375C30 13.1602 31.4355 11.6562 33.2812 11.6562ZM33.2812 22.5938C35.0586 22.5938 36.5625 24.0977 36.5625 25.875C36.5625 27.7207 35.0586 29.1562 33.2812 29.1562C31.4355 29.1562 30 27.7207 30 25.875C30 24.0977 31.4355 22.5938 33.2812 22.5938ZM33.2812 33.5312C35.0586 33.5312 36.5625 35.0352 36.5625 36.8125C36.5625 38.6582 35.0586 40.0938 33.2812 40.0938C31.4355 40.0938 30 38.6582 30 36.8125C30 35.0352 31.4355 33.5312 33.2812 33.5312ZM63.9062 34.625C64.4531 34.625 65 35.1719 65 35.7188V37.9062C65 38.5215 64.4531 39 63.9062 39H42.0312C41.416 39 40.9375 38.5215 40.9375 37.9062V35.7188C40.9375 35.1719 41.416 34.625 42.0312 34.625H63.9062ZM63.9062 12.75C64.4531 12.75 65 13.2969 65 13.8438V16.0312C65 16.6465 64.4531 17.125 63.9062 17.125H42.0312C41.416 17.125 40.9375 16.6465 40.9375 16.0312V13.8438C40.9375 13.2969 41.416 12.75 42.0312 12.75H63.9062ZM63.9062 23.6875C64.4531 23.6875 65 24.2344 65 24.7812V26.9688C65 27.584 64.4531 28.0625 63.9062 28.0625H42.0312C41.416 28.0625 40.9375 27.584 40.9375 26.9688V24.7812C40.9375 24.2344 41.416 23.6875 42.0312 23.6875H63.9062Z" fill="#1E92FD"/>
</svg>
