<svg width="298" height="57" viewBox="0 0 298 57" fill="none" xmlns="http://www.w3.org/2000/svg">
<mask id="path-1-inside-1_6520_128" fill="white">
<path d="M0 0H297.5V57H0V0Z"/>
</mask>
<path d="M296.5 0V57H298.5V0H296.5Z" fill="#F1F1F1" mask="url(#path-1-inside-1_6520_128)"/>
<path d="M101.12 12.32C101.12 13.4293 100.88 14.416 100.4 15.28C99.9307 16.1333 99.248 16.8 98.352 17.28C97.4667 17.76 96.4213 18 95.216 18H90.944V6.688H95.216C96.432 6.688 97.4827 6.92267 98.368 7.392C99.2533 7.86133 99.9307 8.52267 100.4 9.376C100.88 10.2293 101.12 11.2107 101.12 12.32ZM94.976 15.552C96.0427 15.552 96.8693 15.2693 97.456 14.704C98.0533 14.1387 98.352 13.344 98.352 12.32C98.352 11.296 98.0533 10.5013 97.456 9.936C96.8693 9.37067 96.0427 9.088 94.976 9.088H93.68V15.552H94.976ZM111.158 13.296C111.158 13.52 111.132 13.7653 111.078 14.032H104.886C104.918 14.704 105.089 15.1893 105.398 15.488C105.708 15.776 106.102 15.92 106.582 15.92C106.988 15.92 107.324 15.8187 107.59 15.616C107.857 15.4133 108.033 15.152 108.118 14.832H111.014C110.897 15.4613 110.641 16.0267 110.246 16.528C109.852 17.0187 109.35 17.408 108.742 17.696C108.134 17.9733 107.457 18.112 106.71 18.112C105.836 18.112 105.057 17.9307 104.374 17.568C103.702 17.1947 103.174 16.6613 102.79 15.968C102.406 15.2747 102.214 14.464 102.214 13.536C102.214 12.5973 102.401 11.7867 102.774 11.104C103.158 10.4107 103.692 9.88267 104.374 9.52C105.057 9.14667 105.836 8.96 106.71 8.96C107.596 8.96 108.374 9.14133 109.046 9.504C109.718 9.86667 110.236 10.3787 110.598 11.04C110.972 11.6907 111.158 12.4427 111.158 13.296ZM108.39 12.88C108.401 12.2933 108.241 11.856 107.91 11.568C107.59 11.2693 107.19 11.12 106.71 11.12C106.209 11.12 105.793 11.2693 105.462 11.568C105.132 11.8667 104.945 12.304 104.902 12.88H108.39ZM115.833 8.96C116.963 8.96 117.865 9.24267 118.537 9.808C119.219 10.3733 119.646 11.12 119.817 12.048H117.257C117.182 11.6853 117.011 11.4027 116.745 11.2C116.489 10.9867 116.163 10.88 115.769 10.88C115.459 10.88 115.225 10.9493 115.065 11.088C114.905 11.216 114.825 11.4027 114.825 11.648C114.825 11.9253 114.969 12.1333 115.257 12.272C115.555 12.4107 116.019 12.5493 116.649 12.688C117.331 12.848 117.891 13.0133 118.329 13.184C118.766 13.344 119.145 13.6107 119.465 13.984C119.785 14.3573 119.945 14.8587 119.945 15.488C119.945 16 119.806 16.4533 119.529 16.848C119.251 17.2427 118.851 17.552 118.329 17.776C117.806 18 117.187 18.112 116.473 18.112C115.267 18.112 114.302 17.8453 113.577 17.312C112.851 16.7787 112.409 16.016 112.249 15.024H114.889C114.931 15.408 115.091 15.7013 115.369 15.904C115.657 16.1067 116.025 16.208 116.473 16.208C116.782 16.208 117.017 16.1387 117.177 16C117.337 15.8507 117.417 15.6587 117.417 15.424C117.417 15.1147 117.267 14.896 116.969 14.768C116.681 14.6293 116.206 14.4853 115.545 14.336C114.883 14.1973 114.339 14.048 113.913 13.888C113.486 13.728 113.118 13.472 112.809 13.12C112.499 12.7573 112.345 12.2667 112.345 11.648C112.345 10.848 112.649 10.2027 113.257 9.712C113.865 9.21067 114.723 8.96 115.833 8.96ZM126.516 15.648V18H125.284C124.238 18 123.422 17.744 122.836 17.232C122.26 16.7093 121.972 15.8507 121.972 14.656V11.376H120.772V9.072H121.972V6.88H124.708V9.072H126.5V11.376H124.708V14.704C124.708 15.056 124.777 15.3013 124.916 15.44C125.065 15.5787 125.31 15.648 125.652 15.648H126.516ZM127.797 6.56C127.797 6.144 127.947 5.80267 128.245 5.536C128.544 5.25867 128.939 5.12 129.429 5.12C129.92 5.12 130.315 5.25867 130.613 5.536C130.912 5.80267 131.061 6.144 131.061 6.56C131.061 6.96533 130.912 7.30667 130.613 7.584C130.315 7.85067 129.92 7.984 129.429 7.984C128.939 7.984 128.544 7.85067 128.245 7.584C127.947 7.30667 127.797 6.96533 127.797 6.56ZM130.789 9.072V18H128.053V9.072H130.789ZM138.342 8.976C139.366 8.976 140.177 9.31733 140.774 10C141.382 10.6827 141.686 11.6213 141.686 12.816V18H138.95V13.136C138.95 12.5387 138.79 12.0747 138.47 11.744C138.161 11.4027 137.745 11.232 137.222 11.232C136.668 11.232 136.225 11.408 135.894 11.76C135.574 12.112 135.414 12.6133 135.414 13.264V18H132.678V9.072H135.414V10.704C135.67 10.1707 136.049 9.74933 136.55 9.44C137.062 9.13067 137.66 8.976 138.342 8.976ZM146.883 8.96C147.566 8.96 148.152 9.11467 148.643 9.424C149.134 9.73333 149.496 10.1547 149.731 10.688V9.072H152.451V18H149.731V16.384C149.496 16.9173 149.134 17.3387 148.643 17.648C148.152 17.9573 147.566 18.112 146.883 18.112C146.147 18.112 145.486 17.9307 144.899 17.568C144.323 17.1947 143.864 16.6613 143.523 15.968C143.192 15.2747 143.027 14.464 143.027 13.536C143.027 12.5973 143.192 11.7867 143.523 11.104C143.864 10.4107 144.323 9.88267 144.899 9.52C145.486 9.14667 146.147 8.96 146.883 8.96ZM147.763 11.36C147.176 11.36 146.702 11.552 146.339 11.936C145.987 12.32 145.811 12.8533 145.811 13.536C145.811 14.2187 145.987 14.752 146.339 15.136C146.702 15.52 147.176 15.712 147.763 15.712C148.339 15.712 148.808 15.5147 149.171 15.12C149.544 14.7253 149.731 14.1973 149.731 13.536C149.731 12.864 149.544 12.336 149.171 11.952C148.808 11.5573 148.339 11.36 147.763 11.36ZM159.391 15.648V18H158.159C157.113 18 156.297 17.744 155.711 17.232C155.135 16.7093 154.847 15.8507 154.847 14.656V11.376H153.647V9.072H154.847V6.88H157.583V9.072H159.375V11.376H157.583V14.704C157.583 15.056 157.652 15.3013 157.791 15.44C157.94 15.5787 158.185 15.648 158.527 15.648H159.391ZM160.672 6.56C160.672 6.144 160.822 5.80267 161.12 5.536C161.419 5.25867 161.814 5.12 162.304 5.12C162.795 5.12 163.19 5.25867 163.488 5.536C163.787 5.80267 163.936 6.144 163.936 6.56C163.936 6.96533 163.787 7.30667 163.488 7.584C163.19 7.85067 162.795 7.984 162.304 7.984C161.814 7.984 161.419 7.85067 161.12 7.584C160.822 7.30667 160.672 6.96533 160.672 6.56ZM163.664 9.072V18H160.928V9.072H163.664ZM169.729 8.96C170.615 8.96 171.404 9.14667 172.097 9.52C172.801 9.88267 173.351 10.4107 173.745 11.104C174.151 11.7973 174.353 12.608 174.353 13.536C174.353 14.464 174.151 15.2747 173.745 15.968C173.351 16.6613 172.801 17.1947 172.097 17.568C171.404 17.9307 170.615 18.112 169.729 18.112C168.844 18.112 168.049 17.9307 167.345 17.568C166.641 17.1947 166.087 16.6613 165.681 15.968C165.287 15.2747 165.089 14.464 165.089 13.536C165.089 12.608 165.287 11.7973 165.681 11.104C166.087 10.4107 166.641 9.88267 167.345 9.52C168.049 9.14667 168.844 8.96 169.729 8.96ZM169.729 11.328C169.207 11.328 168.764 11.52 168.401 11.904C168.049 12.2773 167.873 12.8213 167.873 13.536C167.873 14.2507 168.049 14.7947 168.401 15.168C168.764 15.5413 169.207 15.728 169.729 15.728C170.252 15.728 170.689 15.5413 171.041 15.168C171.393 14.7947 171.569 14.2507 171.569 13.536C171.569 12.8213 171.393 12.2773 171.041 11.904C170.689 11.52 170.252 11.328 169.729 11.328ZM181.436 8.976C182.46 8.976 183.271 9.31733 183.868 10C184.476 10.6827 184.78 11.6213 184.78 12.816V18H182.044V13.136C182.044 12.5387 181.884 12.0747 181.564 11.744C181.255 11.4027 180.839 11.232 180.316 11.232C179.761 11.232 179.319 11.408 178.988 11.76C178.668 12.112 178.508 12.6133 178.508 13.264V18H175.772V9.072H178.508V10.704C178.764 10.1707 179.143 9.74933 179.644 9.44C180.156 9.13067 180.753 8.976 181.436 8.976ZM189.833 8.96C190.963 8.96 191.865 9.24267 192.537 9.808C193.219 10.3733 193.646 11.12 193.817 12.048H191.257C191.182 11.6853 191.011 11.4027 190.745 11.2C190.489 10.9867 190.163 10.88 189.769 10.88C189.459 10.88 189.225 10.9493 189.065 11.088C188.905 11.216 188.825 11.4027 188.825 11.648C188.825 11.9253 188.969 12.1333 189.257 12.272C189.555 12.4107 190.019 12.5493 190.649 12.688C191.331 12.848 191.891 13.0133 192.329 13.184C192.766 13.344 193.145 13.6107 193.465 13.984C193.785 14.3573 193.945 14.8587 193.945 15.488C193.945 16 193.806 16.4533 193.529 16.848C193.251 17.2427 192.851 17.552 192.329 17.776C191.806 18 191.187 18.112 190.473 18.112C189.267 18.112 188.302 17.8453 187.577 17.312C186.851 16.7787 186.409 16.016 186.249 15.024H188.889C188.931 15.408 189.091 15.7013 189.369 15.904C189.657 16.1067 190.025 16.208 190.473 16.208C190.782 16.208 191.017 16.1387 191.177 16C191.337 15.8507 191.417 15.6587 191.417 15.424C191.417 15.1147 191.267 14.896 190.969 14.768C190.681 14.6293 190.206 14.4853 189.545 14.336C188.883 14.1973 188.339 14.048 187.913 13.888C187.486 13.728 187.118 13.472 186.809 13.12C186.499 12.7573 186.345 12.2667 186.345 11.648C186.345 10.848 186.649 10.2027 187.257 9.712C187.865 9.21067 188.723 8.96 189.833 8.96Z" fill="#181D4E"/>
<rect width="166.5" height="32" transform="translate(90 25)" fill="white"/>
<path d="M100.986 43.872H96.674L95.918 46H94.616L98.144 36.298H99.544L103.058 46H101.742L100.986 43.872ZM100.622 42.864L98.83 37.852L97.038 42.864H100.622ZM106.004 35.64V46H104.73V35.64H106.004ZM109.381 35.64V46H108.107V35.64H109.381ZM123.815 41.198C123.815 42.1967 123.61 43.06 123.199 43.788C122.788 44.5067 122.2 45.0573 121.435 45.44C120.679 45.8133 119.783 46 118.747 46H115.681V36.298H118.747C119.783 36.298 120.679 36.4987 121.435 36.9C122.2 37.292 122.788 37.8567 123.199 38.594C123.61 39.322 123.815 40.19 123.815 41.198ZM118.747 45.02C119.97 45.02 120.903 44.684 121.547 44.012C122.191 43.34 122.513 42.402 122.513 41.198C122.513 39.994 122.191 39.056 121.547 38.384C120.903 37.712 119.97 37.376 118.747 37.376H116.955V45.02H118.747ZM132.401 41.842C132.401 42.1127 132.382 42.3647 132.345 42.598H126.227C126.264 43.3633 126.502 43.97 126.941 44.418C127.389 44.8567 127.958 45.076 128.649 45.076C129.172 45.076 129.61 44.9593 129.965 44.726C130.329 44.4927 130.595 44.1847 130.763 43.802H132.135C131.892 44.474 131.472 45.0293 130.875 45.468C130.287 45.9067 129.545 46.126 128.649 46.126C127.93 46.126 127.286 45.9627 126.717 45.636C126.157 45.3093 125.718 44.8473 125.401 44.25C125.084 43.6433 124.925 42.948 124.925 42.164C124.925 41.3707 125.084 40.6753 125.401 40.078C125.718 39.4713 126.166 39.0047 126.745 38.678C127.324 38.3513 127.991 38.188 128.747 38.188C129.466 38.188 130.1 38.3467 130.651 38.664C131.202 38.9813 131.631 39.4153 131.939 39.966C132.247 40.5167 132.401 41.142 132.401 41.842ZM131.071 41.674C131.071 41.1793 130.964 40.75 130.749 40.386C130.534 40.0127 130.24 39.728 129.867 39.532C129.503 39.336 129.097 39.238 128.649 39.238C127.986 39.238 127.431 39.4573 126.983 39.896C126.535 40.3253 126.288 40.918 126.241 41.674H131.071ZM136.633 38.188C137.464 38.188 138.122 38.4073 138.608 38.846C139.093 39.2753 139.359 39.868 139.406 40.624H138.09C138.071 40.1947 137.926 39.8493 137.656 39.588C137.385 39.3267 137.012 39.196 136.535 39.196C136.05 39.196 135.668 39.3127 135.388 39.546C135.117 39.77 134.982 40.0547 134.982 40.4C134.982 40.6893 135.066 40.9227 135.234 41.1C135.411 41.268 135.626 41.394 135.878 41.478C136.139 41.562 136.489 41.6507 136.928 41.744C137.488 41.8747 137.936 42.0053 138.272 42.136C138.617 42.2573 138.911 42.4673 139.154 42.766C139.396 43.0553 139.518 43.452 139.518 43.956C139.518 44.376 139.396 44.754 139.154 45.09C138.911 45.4167 138.57 45.6733 138.132 45.86C137.693 46.0373 137.189 46.126 136.62 46.126C135.761 46.126 135.07 45.9113 134.548 45.482C134.034 45.0527 133.754 44.46 133.708 43.704H135.024C135.042 44.1333 135.192 44.4787 135.472 44.74C135.761 44.992 136.144 45.118 136.62 45.118C137.142 45.118 137.544 45.0107 137.824 44.796C138.113 44.5813 138.258 44.2967 138.258 43.942C138.258 43.6527 138.169 43.424 137.992 43.256C137.824 43.0787 137.609 42.948 137.348 42.864C137.086 42.7707 136.727 42.6727 136.27 42.57C135.719 42.4487 135.271 42.3273 134.926 42.206C134.59 42.0753 134.3 41.8747 134.058 41.604C133.824 41.3333 133.708 40.96 133.708 40.484C133.708 40.064 133.824 39.6813 134.058 39.336C134.3 38.9813 134.641 38.7013 135.08 38.496C135.528 38.2907 136.046 38.188 136.633 38.188ZM144.927 44.964V46H143.639C142.985 46 142.486 45.8413 142.141 45.524C141.805 45.2067 141.637 44.7073 141.637 44.026V39.35H140.643V38.314H141.637V36.41H142.925V38.314H144.913V39.35H142.925V44.026C142.925 44.3713 142.995 44.614 143.135 44.754C143.275 44.894 143.522 44.964 143.877 44.964H144.927ZM146.123 36.214C146.123 35.9713 146.207 35.766 146.375 35.598C146.543 35.43 146.744 35.346 146.977 35.346C147.22 35.346 147.425 35.43 147.593 35.598C147.761 35.766 147.845 35.9713 147.845 36.214C147.845 36.4567 147.761 36.662 147.593 36.83C147.425 36.998 147.22 37.082 146.977 37.082C146.735 37.082 146.529 36.998 146.361 36.83C146.203 36.662 146.123 36.4567 146.123 36.214ZM147.607 38.314V46H146.333V38.314H147.607ZM153.49 38.188C154.041 38.188 154.54 38.314 154.988 38.566C155.445 38.8087 155.805 39.1773 156.066 39.672C156.337 40.1573 156.472 40.75 156.472 41.45V46H155.212V41.66C155.212 40.8853 155.025 40.2973 154.652 39.896C154.279 39.4947 153.761 39.294 153.098 39.294C152.445 39.294 151.927 39.4947 151.544 39.896C151.171 40.2973 150.984 40.8853 150.984 41.66V46H149.71V38.314H150.984V39.56C151.236 39.112 151.581 38.7713 152.02 38.538C152.459 38.3047 152.949 38.188 153.49 38.188ZM161.665 38.188C162.319 38.188 162.888 38.342 163.373 38.65C163.868 38.958 164.241 39.3593 164.493 39.854V38.314H165.781V46H164.493V44.432C164.241 44.936 163.868 45.3467 163.373 45.664C162.888 45.972 162.319 46.126 161.665 46.126C160.975 46.126 160.349 45.958 159.789 45.622C159.239 45.2767 158.8 44.8007 158.473 44.194C158.156 43.578 157.997 42.8827 157.997 42.108C157.997 41.3333 158.156 40.652 158.473 40.064C158.8 39.4667 159.239 39.0047 159.789 38.678C160.349 38.3513 160.975 38.188 161.665 38.188ZM161.889 39.294C161.432 39.294 161.003 39.406 160.601 39.63C160.209 39.854 159.892 40.1807 159.649 40.61C159.416 41.03 159.299 41.5293 159.299 42.108C159.299 42.6867 159.416 43.2 159.649 43.648C159.892 44.0867 160.209 44.4273 160.601 44.67C161.003 44.9127 161.432 45.034 161.889 45.034C162.356 45.034 162.785 44.9173 163.177 44.684C163.579 44.4507 163.896 44.1193 164.129 43.69C164.372 43.2513 164.493 42.7427 164.493 42.164C164.493 41.5853 164.372 41.0813 164.129 40.652C163.896 40.2133 163.579 39.8773 163.177 39.644C162.785 39.4107 162.356 39.294 161.889 39.294ZM171.45 44.964V46H170.162C169.509 46 169.009 45.8413 168.664 45.524C168.328 45.2067 168.16 44.7073 168.16 44.026V39.35H167.166V38.314H168.16V36.41H169.448V38.314H171.436V39.35H169.448V44.026C169.448 44.3713 169.518 44.614 169.658 44.754C169.798 44.894 170.045 44.964 170.4 44.964H171.45ZM172.647 36.214C172.647 35.9713 172.731 35.766 172.899 35.598C173.067 35.43 173.267 35.346 173.501 35.346C173.743 35.346 173.949 35.43 174.117 35.598C174.285 35.766 174.369 35.9713 174.369 36.214C174.369 36.4567 174.285 36.662 174.117 36.83C173.949 36.998 173.743 37.082 173.501 37.082C173.258 37.082 173.053 36.998 172.885 36.83C172.726 36.662 172.647 36.4567 172.647 36.214ZM174.131 38.314V46H172.857V38.314H174.131ZM179.608 38.188C180.336 38.188 180.994 38.3513 181.582 38.678C182.17 39.0047 182.632 39.4713 182.968 40.078C183.313 40.6847 183.486 41.38 183.486 42.164C183.486 42.9387 183.308 43.6293 182.954 44.236C182.599 44.8333 182.118 45.3 181.512 45.636C180.905 45.9627 180.233 46.126 179.496 46.126C178.777 46.126 178.128 45.9627 177.55 45.636C176.98 45.3093 176.532 44.8473 176.206 44.25C175.888 43.6433 175.73 42.948 175.73 42.164C175.73 41.3707 175.898 40.6753 176.234 40.078C176.579 39.4713 177.046 39.0047 177.634 38.678C178.222 38.3513 178.88 38.188 179.608 38.188ZM179.566 39.238C179.099 39.238 178.674 39.35 178.292 39.574C177.909 39.798 177.601 40.1293 177.368 40.568C177.144 41.0067 177.032 41.5387 177.032 42.164C177.032 42.78 177.139 43.3073 177.354 43.746C177.578 44.1847 177.876 44.516 178.25 44.74C178.623 44.964 179.038 45.076 179.496 45.076C179.962 45.076 180.396 44.964 180.798 44.74C181.208 44.5067 181.54 44.1707 181.792 43.732C182.044 43.2933 182.17 42.7707 182.17 42.164C182.17 41.548 182.048 41.0207 181.806 40.582C181.572 40.134 181.255 39.798 180.854 39.574C180.462 39.35 180.032 39.238 179.566 39.238ZM188.859 38.188C189.41 38.188 189.909 38.314 190.357 38.566C190.815 38.8087 191.174 39.1773 191.435 39.672C191.706 40.1573 191.841 40.75 191.841 41.45V46H190.581V41.66C190.581 40.8853 190.395 40.2973 190.021 39.896C189.648 39.4947 189.13 39.294 188.467 39.294C187.814 39.294 187.296 39.4947 186.913 39.896C186.54 40.2973 186.353 40.8853 186.353 41.66V46H185.079V38.314H186.353V39.56C186.605 39.112 186.951 38.7713 187.389 38.538C187.828 38.3047 188.318 38.188 188.859 38.188ZM196.516 38.188C197.347 38.188 198.005 38.4073 198.49 38.846C198.976 39.2753 199.242 39.868 199.288 40.624H197.972C197.954 40.1947 197.809 39.8493 197.538 39.588C197.268 39.3267 196.894 39.196 196.418 39.196C195.933 39.196 195.55 39.3127 195.27 39.546C195 39.77 194.864 40.0547 194.864 40.4C194.864 40.6893 194.948 40.9227 195.116 41.1C195.294 41.268 195.508 41.394 195.76 41.478C196.022 41.562 196.372 41.6507 196.81 41.744C197.37 41.8747 197.818 42.0053 198.154 42.136C198.5 42.2573 198.794 42.4673 199.036 42.766C199.279 43.0553 199.4 43.452 199.4 43.956C199.4 44.376 199.279 44.754 199.036 45.09C198.794 45.4167 198.453 45.6733 198.014 45.86C197.576 46.0373 197.072 46.126 196.502 46.126C195.644 46.126 194.953 45.9113 194.43 45.482C193.917 45.0527 193.637 44.46 193.59 43.704H194.906C194.925 44.1333 195.074 44.4787 195.354 44.74C195.644 44.992 196.026 45.118 196.502 45.118C197.025 45.118 197.426 45.0107 197.706 44.796C197.996 44.5813 198.14 44.2967 198.14 43.942C198.14 43.6527 198.052 43.424 197.874 43.256C197.706 43.0787 197.492 42.948 197.23 42.864C196.969 42.7707 196.61 42.6727 196.152 42.57C195.602 42.4487 195.154 42.3273 194.808 42.206C194.472 42.0753 194.183 41.8747 193.94 41.604C193.707 41.3333 193.59 40.96 193.59 40.484C193.59 40.064 193.707 39.6813 193.94 39.336C194.183 38.9813 194.524 38.7013 194.962 38.496C195.41 38.2907 195.928 38.188 196.516 38.188Z" fill="#6E6E6E"/>
<path d="M41.7578 42.6914C31.7773 28.3359 30 26.832 30 21.5C30 14.2539 35.8105 8.375 43.125 8.375C50.3711 8.375 56.25 14.2539 56.25 21.5C56.25 26.832 54.4043 28.3359 44.4238 42.6914C43.8086 43.6484 42.373 43.6484 41.7578 42.6914ZM43.125 26.9688C46.1328 26.9688 48.5938 24.5762 48.5938 21.5C48.5938 18.4922 46.1328 16.0312 43.125 16.0312C40.0488 16.0312 37.6562 18.4922 37.6562 21.5C37.6562 24.5762 40.0488 26.9688 43.125 26.9688Z" fill="#1E92FD"/>
</svg>
