<svg width="298" height="56" viewBox="0 0 298 56" fill="none" xmlns="http://www.w3.org/2000/svg">
<mask id="path-1-inside-1_6520_122" fill="white">
<path d="M0 0H297.5V56H0V0Z"/>
</mask>
<path d="M296.5 0V56H298.5V0H296.5Z" fill="#F1F1F1" mask="url(#path-1-inside-1_6520_122)"/>
<path d="M99.072 14.816C99.072 15.4133 98.9173 15.9627 98.608 16.464C98.3093 16.9653 97.8613 17.3653 97.264 17.664C96.6773 17.9627 95.9627 18.112 95.12 18.112C93.8507 18.112 92.8053 17.8027 91.984 17.184C91.1627 16.5653 90.7147 15.7013 90.64 14.592H93.552C93.5947 15.0187 93.744 15.3547 94 15.6C94.2667 15.8453 94.6027 15.968 95.008 15.968C95.36 15.968 95.6373 15.872 95.84 15.68C96.0427 15.488 96.144 15.232 96.144 14.912C96.144 14.624 96.048 14.384 95.856 14.192C95.6747 14 95.4453 13.8453 95.168 13.728C94.8907 13.6 94.5067 13.4507 94.016 13.28C93.3013 13.0347 92.7147 12.8 92.256 12.576C91.808 12.3413 91.4187 12 91.088 11.552C90.768 11.0933 90.608 10.5013 90.608 9.776C90.608 9.104 90.7787 8.52267 91.12 8.032C91.4613 7.54133 91.9307 7.168 92.528 6.912C93.136 6.64533 93.8293 6.512 94.608 6.512C95.8667 6.512 96.864 6.81067 97.6 7.408C98.3467 8.00533 98.768 8.82667 98.864 9.872H95.904C95.8507 9.49867 95.712 9.20533 95.488 8.992C95.2747 8.768 94.9813 8.656 94.608 8.656C94.288 8.656 94.0267 8.74133 93.824 8.912C93.632 9.08267 93.536 9.33333 93.536 9.664C93.536 9.93067 93.6213 10.16 93.792 10.352C93.9733 10.5333 94.1973 10.6827 94.464 10.8C94.7307 10.9173 95.1147 11.0667 95.616 11.248C96.3413 11.4933 96.9333 11.7387 97.392 11.984C97.8507 12.2187 98.2453 12.5653 98.576 13.024C98.9067 13.4827 99.072 14.08 99.072 14.816ZM109.065 13.296C109.065 13.52 109.038 13.7653 108.985 14.032H102.793C102.825 14.704 102.995 15.1893 103.305 15.488C103.614 15.776 104.009 15.92 104.489 15.92C104.894 15.92 105.23 15.8187 105.497 15.616C105.763 15.4133 105.939 15.152 106.025 14.832H108.921C108.803 15.4613 108.547 16.0267 108.153 16.528C107.758 17.0187 107.257 17.408 106.649 17.696C106.041 17.9733 105.363 18.112 104.617 18.112C103.742 18.112 102.963 17.9307 102.281 17.568C101.609 17.1947 101.081 16.6613 100.697 15.968C100.313 15.2747 100.121 14.464 100.121 13.536C100.121 12.5973 100.307 11.7867 100.681 11.104C101.065 10.4107 101.598 9.88267 102.281 9.52C102.963 9.14667 103.742 8.96 104.617 8.96C105.502 8.96 106.281 9.14133 106.953 9.504C107.625 9.86667 108.142 10.3787 108.505 11.04C108.878 11.6907 109.065 12.4427 109.065 13.296ZM106.297 12.88C106.307 12.2933 106.147 11.856 105.817 11.568C105.497 11.2693 105.097 11.12 104.617 11.12C104.115 11.12 103.699 11.2693 103.369 11.568C103.038 11.8667 102.851 12.304 102.809 12.88H106.297ZM113.883 8.96C114.566 8.96 115.152 9.11467 115.643 9.424C116.134 9.73333 116.496 10.1547 116.731 10.688V9.072H119.451V18H116.731V16.384C116.496 16.9173 116.134 17.3387 115.643 17.648C115.152 17.9573 114.566 18.112 113.883 18.112C113.147 18.112 112.486 17.9307 111.899 17.568C111.323 17.1947 110.864 16.6613 110.523 15.968C110.192 15.2747 110.027 14.464 110.027 13.536C110.027 12.5973 110.192 11.7867 110.523 11.104C110.864 10.4107 111.323 9.88267 111.899 9.52C112.486 9.14667 113.147 8.96 113.883 8.96ZM114.763 11.36C114.176 11.36 113.702 11.552 113.339 11.936C112.987 12.32 112.811 12.8533 112.811 13.536C112.811 14.2187 112.987 14.752 113.339 15.136C113.702 15.52 114.176 15.712 114.763 15.712C115.339 15.712 115.808 15.5147 116.171 15.12C116.544 14.7253 116.731 14.1973 116.731 13.536C116.731 12.864 116.544 12.336 116.171 11.952C115.808 11.5573 115.339 11.36 114.763 11.36ZM124.071 10.752C124.412 10.208 124.849 9.776 125.383 9.456C125.927 9.136 126.513 8.976 127.143 8.976V11.904H126.359C125.633 11.904 125.068 12.0587 124.663 12.368C124.268 12.6773 124.071 13.2 124.071 13.936V18H121.335V9.072H124.071V10.752ZM132.32 8.96C133.472 8.96 134.437 9.28 135.216 9.92C135.994 10.5493 136.485 11.4187 136.688 12.528H133.792C133.706 12.144 133.53 11.8453 133.264 11.632C132.997 11.4187 132.661 11.312 132.256 11.312C131.776 11.312 131.381 11.504 131.072 11.888C130.762 12.2613 130.608 12.8107 130.608 13.536C130.608 14.2613 130.762 14.816 131.072 15.2C131.381 15.5733 131.776 15.76 132.256 15.76C132.661 15.76 132.997 15.6533 133.264 15.44C133.53 15.2267 133.706 14.928 133.792 14.544H136.688C136.485 15.6533 135.994 16.528 135.216 17.168C134.437 17.7973 133.472 18.112 132.32 18.112C131.445 18.112 130.666 17.9307 129.984 17.568C129.312 17.1947 128.784 16.6613 128.4 15.968C128.016 15.2747 127.824 14.464 127.824 13.536C127.824 12.5973 128.01 11.7867 128.384 11.104C128.768 10.4107 129.301 9.88267 129.984 9.52C130.666 9.14667 131.445 8.96 132.32 8.96ZM143.78 8.976C144.804 8.976 145.615 9.31733 146.212 10C146.82 10.6827 147.124 11.6213 147.124 12.816V18H144.388V13.136C144.388 12.5387 144.228 12.0747 143.908 11.744C143.599 11.4027 143.183 11.232 142.66 11.232C142.105 11.232 141.663 11.408 141.332 11.76C141.012 12.112 140.852 12.6133 140.852 13.264V18H138.116V6.16H140.852V10.704C141.108 10.1707 141.487 9.74933 141.988 9.44C142.5 9.13067 143.097 8.976 143.78 8.976Z" fill="#181D4E"/>
<rect width="166.5" height="31" transform="translate(90 25)" fill="white"/>
<path d="M92.324 35.298V45H91.05V35.298H92.324ZM98.207 37.188C98.7576 37.188 99.257 37.314 99.705 37.566C100.162 37.8087 100.522 38.1773 100.783 38.672C101.054 39.1573 101.189 39.75 101.189 40.45V45H99.929V40.66C99.929 39.8853 99.7423 39.2973 99.369 38.896C98.9956 38.4947 98.4776 38.294 97.815 38.294C97.1616 38.294 96.6436 38.4947 96.261 38.896C95.8876 39.2973 95.701 39.8853 95.701 40.66V45H94.427V37.314H95.701V38.56C95.953 38.112 96.2983 37.7713 96.737 37.538C97.1756 37.3047 97.6656 37.188 98.207 37.188ZM105.864 37.188C106.695 37.188 107.353 37.4073 107.838 37.846C108.323 38.2753 108.589 38.868 108.636 39.624H107.32C107.301 39.1947 107.157 38.8493 106.886 38.588C106.615 38.3267 106.242 38.196 105.766 38.196C105.281 38.196 104.898 38.3127 104.618 38.546C104.347 38.77 104.212 39.0547 104.212 39.4C104.212 39.6893 104.296 39.9227 104.464 40.1C104.641 40.268 104.856 40.394 105.108 40.478C105.369 40.562 105.719 40.6507 106.158 40.744C106.718 40.8747 107.166 41.0053 107.502 41.136C107.847 41.2573 108.141 41.4673 108.384 41.766C108.627 42.0553 108.748 42.452 108.748 42.956C108.748 43.376 108.627 43.754 108.384 44.09C108.141 44.4167 107.801 44.6733 107.362 44.86C106.923 45.0373 106.419 45.126 105.85 45.126C104.991 45.126 104.301 44.9113 103.778 44.482C103.265 44.0527 102.985 43.46 102.938 42.704H104.254C104.273 43.1333 104.422 43.4787 104.702 43.74C104.991 43.992 105.374 44.118 105.85 44.118C106.373 44.118 106.774 44.0107 107.054 43.796C107.343 43.5813 107.488 43.2967 107.488 42.942C107.488 42.6527 107.399 42.424 107.222 42.256C107.054 42.0787 106.839 41.948 106.578 41.864C106.317 41.7707 105.957 41.6727 105.5 41.57C104.949 41.4487 104.501 41.3273 104.156 41.206C103.82 41.0753 103.531 40.8747 103.288 40.604C103.055 40.3333 102.938 39.96 102.938 39.484C102.938 39.064 103.055 38.6813 103.288 38.336C103.531 37.9813 103.871 37.7013 104.31 37.496C104.758 37.2907 105.276 37.188 105.864 37.188ZM117.559 40.842C117.559 41.1127 117.54 41.3647 117.503 41.598H111.385C111.422 42.3633 111.66 42.97 112.099 43.418C112.547 43.8567 113.116 44.076 113.807 44.076C114.33 44.076 114.768 43.9593 115.123 43.726C115.487 43.4927 115.753 43.1847 115.921 42.802H117.293C117.05 43.474 116.63 44.0293 116.033 44.468C115.445 44.9067 114.703 45.126 113.807 45.126C113.088 45.126 112.444 44.9627 111.875 44.636C111.315 44.3093 110.876 43.8473 110.559 43.25C110.242 42.6433 110.083 41.948 110.083 41.164C110.083 40.3707 110.242 39.6753 110.559 39.078C110.876 38.4713 111.324 38.0047 111.903 37.678C112.482 37.3513 113.149 37.188 113.905 37.188C114.624 37.188 115.258 37.3467 115.809 37.664C116.36 37.9813 116.789 38.4153 117.097 38.966C117.405 39.5167 117.559 40.142 117.559 40.842ZM116.229 40.674C116.229 40.1793 116.122 39.75 115.907 39.386C115.692 39.0127 115.398 38.728 115.025 38.532C114.661 38.336 114.255 38.238 113.807 38.238C113.144 38.238 112.589 38.4573 112.141 38.896C111.693 39.3253 111.446 39.918 111.399 40.674H116.229ZM120.42 38.616C120.877 37.664 121.656 37.188 122.758 37.188V38.518H122.422C121.768 38.518 121.269 38.6907 120.924 39.036C120.588 39.372 120.42 39.96 120.42 40.8V45H119.146V37.314H120.42V38.616ZM127.87 43.964V45H126.582C125.929 45 125.429 44.8413 125.084 44.524C124.748 44.2067 124.58 43.7073 124.58 43.026V38.35H123.586V37.314H124.58V35.41H125.868V37.314H127.856V38.35H125.868V43.026C125.868 43.3713 125.938 43.614 126.078 43.754C126.218 43.894 126.465 43.964 126.82 43.964H127.87ZM135.854 41.136L139.48 45H137.758L134.748 41.626V45H133.474V34.64H134.748V40.716L137.688 37.314H139.48L135.854 41.136ZM147.624 40.842C147.624 41.1127 147.605 41.3647 147.568 41.598H141.45C141.487 42.3633 141.725 42.97 142.164 43.418C142.612 43.8567 143.181 44.076 143.872 44.076C144.394 44.076 144.833 43.9593 145.188 43.726C145.552 43.4927 145.818 43.1847 145.986 42.802H147.358C147.115 43.474 146.695 44.0293 146.098 44.468C145.51 44.9067 144.768 45.126 143.872 45.126C143.153 45.126 142.509 44.9627 141.94 44.636C141.38 44.3093 140.941 43.8473 140.624 43.25C140.306 42.6433 140.148 41.948 140.148 41.164C140.148 40.3707 140.306 39.6753 140.624 39.078C140.941 38.4713 141.389 38.0047 141.968 37.678C142.546 37.3513 143.214 37.188 143.97 37.188C144.688 37.188 145.323 37.3467 145.874 37.664C146.424 37.9813 146.854 38.4153 147.162 38.966C147.47 39.5167 147.624 40.142 147.624 40.842ZM146.294 40.674C146.294 40.1793 146.186 39.75 145.972 39.386C145.757 39.0127 145.463 38.728 145.09 38.532C144.726 38.336 144.32 38.238 143.872 38.238C143.209 38.238 142.654 38.4573 142.206 38.896C141.758 39.3253 141.51 39.918 141.464 40.674H146.294ZM149.728 37.314L152.08 43.53L154.474 37.314H155.79L151.156 48.598H149.84L151.366 44.874L148.328 37.314H149.728ZM167.097 37.314L164.675 45H163.359L161.623 38.896L159.887 45H158.557L156.121 37.314H157.437L159.215 43.726L161.021 37.314H162.337L164.045 43.74L165.809 37.314H167.097ZM171.684 37.188C172.412 37.188 173.07 37.3513 173.658 37.678C174.246 38.0047 174.708 38.4713 175.044 39.078C175.389 39.6847 175.562 40.38 175.562 41.164C175.562 41.9387 175.384 42.6293 175.03 43.236C174.675 43.8333 174.194 44.3 173.588 44.636C172.981 44.9627 172.309 45.126 171.572 45.126C170.853 45.126 170.204 44.9627 169.626 44.636C169.056 44.3093 168.608 43.8473 168.282 43.25C167.964 42.6433 167.806 41.948 167.806 41.164C167.806 40.3707 167.974 39.6753 168.31 39.078C168.655 38.4713 169.122 38.0047 169.71 37.678C170.298 37.3513 170.956 37.188 171.684 37.188ZM171.642 38.238C171.175 38.238 170.75 38.35 170.368 38.574C169.985 38.798 169.677 39.1293 169.444 39.568C169.22 40.0067 169.108 40.5387 169.108 41.164C169.108 41.78 169.215 42.3073 169.43 42.746C169.654 43.1847 169.952 43.516 170.326 43.74C170.699 43.964 171.114 44.076 171.572 44.076C172.038 44.076 172.472 43.964 172.874 43.74C173.284 43.5067 173.616 43.1707 173.868 42.732C174.12 42.2933 174.246 41.7707 174.246 41.164C174.246 40.548 174.124 40.0207 173.882 39.582C173.648 39.134 173.331 38.798 172.93 38.574C172.538 38.35 172.108 38.238 171.642 38.238ZM178.429 38.616C178.887 37.664 179.666 37.188 180.767 37.188V38.518H180.431C179.778 38.518 179.279 38.6907 178.933 39.036C178.597 39.372 178.429 39.96 178.429 40.8V45H177.155V37.314H178.429V38.616ZM185.474 37.188C186.127 37.188 186.696 37.342 187.182 37.65C187.676 37.958 188.05 38.3593 188.302 38.854V34.64H189.59V45H188.302V43.432C188.05 43.936 187.676 44.3467 187.182 44.664C186.696 44.972 186.127 45.126 185.474 45.126C184.783 45.126 184.158 44.958 183.598 44.622C183.047 44.2767 182.608 43.8007 182.282 43.194C181.964 42.578 181.806 41.8827 181.806 41.108C181.806 40.3333 181.964 39.652 182.282 39.064C182.608 38.4667 183.047 38.0047 183.598 37.678C184.158 37.3513 184.783 37.188 185.474 37.188ZM185.698 38.294C185.24 38.294 184.811 38.406 184.41 38.63C184.018 38.854 183.7 39.1807 183.458 39.61C183.224 40.03 183.108 40.5293 183.108 41.108C183.108 41.6867 183.224 42.2 183.458 42.648C183.7 43.0867 184.018 43.4273 184.41 43.67C184.811 43.9127 185.24 44.034 185.698 44.034C186.164 44.034 186.594 43.9173 186.986 43.684C187.387 43.4507 187.704 43.1193 187.938 42.69C188.18 42.2513 188.302 41.7427 188.302 41.164C188.302 40.5853 188.18 40.0813 187.938 39.652C187.704 39.2133 187.387 38.8773 186.986 38.644C186.594 38.4107 186.164 38.294 185.698 38.294Z" fill="#757575"/>
<path d="M64.5215 38.6582C65.1367 39.3418 65.1367 40.3672 64.4531 40.9824L62.5391 42.8965C61.9238 43.5801 60.8984 43.5801 60.2148 42.8965L53.4473 36.1289C53.1055 35.7871 52.9688 35.377 52.9688 34.9668V33.8047C50.5078 35.7188 47.5 36.8125 44.2188 36.8125C36.3574 36.8125 30 30.4551 30 22.5938C30 14.8008 36.3574 8.375 44.2188 8.375C52.0117 8.375 58.4375 14.8008 58.4375 22.5938C58.4375 25.9434 57.2754 28.9512 55.4297 31.3438H56.5234C56.9336 31.3438 57.3438 31.5488 57.6855 31.8223L64.5215 38.6582ZM44.2188 31.3438C49.0039 31.3438 52.9688 27.4473 52.9688 22.5938C52.9688 17.8086 49.0039 13.8438 44.2188 13.8438C39.3652 13.8438 35.4688 17.8086 35.4688 22.5938C35.4688 27.4473 39.3652 31.3438 44.2188 31.3438Z" fill="#1E92FD"/>
</svg>
