<svg width="22" height="15" viewBox="0 0 22 15" fill="none" xmlns="http://www.w3.org/2000/svg">
<path d="M20.8977 2.38281C21.3664 4.02344 21.3664 7.53906 21.3664 7.53906C21.3664 7.53906 21.3664 11.0156 20.8977 12.6953C20.6633 13.6328 19.9211 14.3359 19.0227 14.5703C17.343 15 10.7023 15 10.7023 15C10.7023 15 4.02266 15 2.34297 14.5703C1.44453 14.3359 0.702344 13.6328 0.467969 12.6953C-0.000781059 11.0156 -0.000781059 7.53906 -0.000781059 7.53906C-0.000781059 7.53906 -0.000781059 4.02344 0.467969 2.38281C0.702344 1.44531 1.44453 0.703125 2.34297 0.46875C4.02266 0 10.7023 0 10.7023 0C10.7023 0 17.343 0 19.0227 0.46875C19.9211 0.703125 20.6633 1.44531 20.8977 2.38281ZM8.51484 10.7031L14.0617 7.53906L8.51484 4.375V10.7031Z" fill="white"/>
</svg>
