<svg width="18" height="16" viewBox="0 0 18 16" fill="none" xmlns="http://www.w3.org/2000/svg">
<path d="M0.624219 2.8125C0.272656 2.8125 -0.000781059 2.53906 -0.000781059 2.1875V0.625C-0.000781059 0.3125 0.272656 0 0.624219 0H16.8742C17.1867 0 17.4992 0.3125 17.4992 0.625V2.1875C17.4992 2.53906 17.1867 2.8125 16.8742 2.8125H0.624219ZM0.624219 9.0625C0.272656 9.0625 -0.000781059 8.78906 -0.000781059 8.4375V6.875C-0.000781059 6.5625 0.272656 6.25 0.624219 6.25H16.8742C17.1867 6.25 17.4992 6.5625 17.4992 6.875V8.4375C17.4992 8.78906 17.1867 9.0625 16.8742 9.0625H0.624219ZM0.624219 15.3125C0.272656 15.3125 -0.000781059 15.0391 -0.000781059 14.6875V13.125C-0.000781059 12.8125 0.272656 12.5 0.624219 12.5H16.8742C17.1867 12.5 17.4992 12.8125 17.4992 13.125V14.6875C17.4992 15.0391 17.1867 15.3125 16.8742 15.3125H0.624219Z" fill="white"/>
</svg>
