<svg width="20" height="17" viewBox="0 0 20 17" fill="none" xmlns="http://www.w3.org/2000/svg">
<path d="M17.9289 4.02344C17.9289 4.21875 17.9289 4.375 17.9289 4.57031C17.9289 10 13.8273 16.2109 6.28828 16.2109C3.94453 16.2109 1.79609 15.5469 -0.000781059 14.375C0.311719 14.4141 0.624219 14.4531 0.975781 14.4531C2.88984 14.4531 4.64766 13.7891 6.05391 12.6953C4.25703 12.6562 2.73359 11.4844 2.22578 9.84375C2.49922 9.88281 2.73359 9.92188 3.00703 9.92188C3.35859 9.92188 3.74922 9.84375 4.06172 9.76562C2.18672 9.375 0.780469 7.73438 0.780469 5.74219V5.70312C1.32734 6.01562 1.99141 6.17188 2.65547 6.21094C1.52266 5.46875 0.819531 4.21875 0.819531 2.8125C0.819531 2.03125 1.01484 1.32812 1.36641 0.742188C3.39766 3.20312 6.44453 4.84375 9.84297 5.03906C9.76484 4.72656 9.72578 4.41406 9.72578 4.10156C9.72578 1.83594 11.5617 0 13.8273 0C14.9992 0 16.0539 0.46875 16.8352 1.28906C17.7336 1.09375 18.632 0.742188 19.4133 0.273438C19.1008 1.25 18.4758 2.03125 17.6164 2.53906C18.4367 2.46094 19.257 2.22656 19.9602 1.91406C19.4133 2.73438 18.7102 3.4375 17.9289 4.02344Z" fill="white"/>
</svg>
